<svg width="26" height="20" viewBox="0 0 26 20" fill="none" xmlns="http://www.w3.org/2000/svg">
<path d="M19.869 8.71289C21.4965 8.48422 22.7495 7.08889 22.753 5.39839C22.753 3.73239 21.5385 2.35106 19.946 2.08972" stroke="#828282" stroke-width="1.5" stroke-linecap="round" stroke-linejoin="round"/>
<path d="M22.0166 12.6254C23.5927 12.861 24.6929 13.4129 24.6929 14.5504C24.6929 15.3332 24.1749 15.8419 23.3372 16.1615" stroke="#828282" stroke-width="1.5" stroke-linecap="round" stroke-linejoin="round"/>
<path fill-rule="evenodd" clip-rule="evenodd" d="M12.8678 13.1078C9.11815 13.1078 5.91565 13.676 5.91565 15.9451C5.91565 18.2131 9.09832 18.7976 12.8678 18.7976C16.6175 18.7976 19.8188 18.2353 19.8188 15.965C19.8188 13.6946 16.6373 13.1078 12.8678 13.1078Z" stroke="#828282" stroke-width="1.5" stroke-linecap="round" stroke-linejoin="round"/>
<path fill-rule="evenodd" clip-rule="evenodd" d="M12.8678 9.86925C15.3283 9.86925 17.3233 7.87542 17.3233 5.41375C17.3233 2.95325 15.3283 0.958252 12.8678 0.958252C10.4073 0.958252 8.41232 2.95325 8.41232 5.41375C8.40298 7.86609 10.3828 9.86109 12.8352 9.86925H12.8678Z" stroke="#828282" stroke-width="1.5" stroke-linecap="round" stroke-linejoin="round"/>
<path d="M5.8656 8.71289C4.23693 8.48422 2.9851 7.08889 2.9816 5.39839C2.9816 3.73239 4.1961 2.35106 5.7886 2.08972" stroke="#828282" stroke-width="1.5" stroke-linecap="round" stroke-linejoin="round"/>
<path d="M3.71788 12.6254C2.14172 12.861 1.04155 13.4129 1.04155 14.5504C1.04155 15.3332 1.55955 15.8419 2.39722 16.1615" stroke="#828282" stroke-width="1.5" stroke-linecap="round" stroke-linejoin="round"/>
</svg>
