<svg width="12" height="12" viewBox="0 0 12 12" fill="none" xmlns="http://www.w3.org/2000/svg">
<g clip-path="url(#clip0_21_762)">
<path d="M9.79922 7.03589C8.13047 7.03823 6.68672 8.01089 6.00937 9.42417L5.99766 9.44995C5.30859 8.01323 3.86719 7.03823 2.19844 7.03823H0V7.43901C0 9.75464 1.88437 11.639 4.2 11.639H7.8C10.1156 11.639 12 9.75464 12 7.43901V7.03823H9.79922V7.03589ZM4.2 10.8375C2.46094 10.8375 1.02187 9.52495 0.822656 7.83745H2.19844C3.9375 7.83745 5.37656 9.14995 5.57578 10.8375H4.2ZM7.8 10.8375H6.42422C6.62344 9.14995 8.0625 7.83745 9.80156 7.83745H11.1773C10.9781 9.52261 9.53906 10.8375 7.8 10.8375Z" fill="#4F4F4F"/>
<path d="M3.83208 6.00469C3.91177 6.47344 4.13208 6.87891 4.44614 7.19062L4.56333 7.30781H4.72974H4.73677C5.21255 7.30781 5.65083 7.15547 6.00942 6.89766L6.00239 6.90234C6.35396 7.15547 6.79458 7.30781 7.26802 7.30781H7.27505H7.43911L7.5563 7.19062C7.87036 6.87891 8.09067 6.47344 8.16802 6.01641L8.17036 6.00234C8.63911 5.92266 9.04458 5.70234 9.3563 5.38828L9.47349 5.27109V5.10938V5.10234C9.47349 4.62656 9.32114 4.18828 9.06333 3.82969L9.06802 3.83672C9.32114 3.48516 9.47349 3.04453 9.47349 2.57109V2.56406V2.39766L9.3563 2.28047C9.04458 1.96641 8.63677 1.74609 8.18208 1.66875L8.17036 1.66641C8.09067 1.19766 7.87036 0.792188 7.5563 0.480469L7.43911 0.363281H7.2727H7.26567C6.78989 0.363281 6.35161 0.515625 5.99302 0.773438L6.00005 0.76875C5.64849 0.515625 5.20786 0.363281 4.73442 0.363281H4.72739H4.56099L4.4438 0.480469C4.12974 0.792188 3.90942 1.2 3.83208 1.65469L3.82974 1.66641C3.36099 1.74609 2.95552 1.96641 2.6438 2.28047L2.52661 2.39766V2.56406V2.56875C2.52661 3.04453 2.67896 3.48281 2.93677 3.84141L2.93208 3.83438C2.67895 4.18594 2.52661 4.62656 2.52661 5.1V5.10703V5.27344L2.6438 5.39062C2.95552 5.70469 3.36333 5.925 3.81802 6.00234L3.83208 6.00469ZM3.73599 3.55313C3.52036 3.33984 3.37505 3.05625 3.33755 2.73984V2.73281C3.57192 2.54766 3.87192 2.43516 4.19536 2.43516H4.20005H4.60083V2.03672V2.03203C4.60083 1.70625 4.71333 1.40859 4.90083 1.16953L4.89849 1.17188C5.22192 1.21172 5.50552 1.35703 5.7188 1.57266L6.00005 1.85625L6.2813 1.57266C6.49458 1.35703 6.77817 1.21172 7.09458 1.17422H7.10161C7.28677 1.40859 7.39927 1.70859 7.39927 2.03203V2.03672V2.4375H7.80005H7.80474C8.13052 2.4375 8.43052 2.55 8.66724 2.7375L8.66489 2.73516C8.62505 3.05859 8.47974 3.34219 8.26411 3.55547L7.98052 3.83906L8.26411 4.12266C8.47974 4.33594 8.62505 4.61953 8.66255 4.93594V4.94297C8.42817 5.12812 8.12817 5.24063 7.80474 5.24063H7.80005H7.39927V5.64141V5.64609C7.39927 5.97187 7.28677 6.26953 7.09927 6.50625L7.10161 6.50391C6.77817 6.46406 6.49458 6.31875 6.2813 6.10312L6.00005 5.81719L5.71645 6.10078C5.50317 6.31641 5.21958 6.46172 4.90317 6.49922H4.89614C4.71099 6.26484 4.59849 5.96484 4.59849 5.64141V5.63672V5.23594H4.19771H4.19536C3.86958 5.23594 3.56958 5.12344 3.33286 4.93594L3.33521 4.93828C3.37505 4.61484 3.52036 4.33125 3.73599 4.11797L4.01958 3.83438L3.73599 3.55313Z" fill="#4F4F4F"/>
</g>
<defs>
<clipPath id="clip0_21_762">
<rect width="12" height="12" fill="white"/>
</clipPath>
</defs>
</svg>
