<svg width="16" height="12" viewBox="0 0 16 12" fill="none" xmlns="http://www.w3.org/2000/svg">
<g clip-path="url(#clip0_50_6462)">
<path d="M15.4023 6.49938C11.5312 6.82961 7.77078 6.99539 4.95698 6.61799C2.96349 6.35112 1.43224 5.80793 0.641877 4.8523V6.45086C0.641877 6.59508 0.641877 6.83096 0.634065 7.06279C0.610627 8.37695 0.591096 9.48894 1.74995 10.3974V9.77064C1.74725 9.7283 1.75297 9.68584 1.76677 9.64588C1.78056 9.60592 1.80213 9.56932 1.83015 9.53835C1.85816 9.50737 1.89202 9.48267 1.92963 9.46579C1.96723 9.44891 2.00779 9.4402 2.04878 9.4402C2.08977 9.4402 2.13032 9.44891 2.16793 9.46579C2.20554 9.48267 2.23939 9.50737 2.26741 9.53835C2.29542 9.56932 2.31699 9.60592 2.33079 9.64588C2.34458 9.68584 2.35031 9.7283 2.34761 9.77064V10.7829C2.63959 10.929 2.94492 11.0446 3.25906 11.1279C3.33589 11.1482 3.41271 11.1684 3.49214 11.1859V8.6263C3.48944 8.58397 3.49516 8.5415 3.50896 8.50154C3.52275 8.46159 3.54432 8.42499 3.57234 8.39401C3.60035 8.36304 3.63421 8.33834 3.67181 8.32146C3.70942 8.30458 3.74998 8.29587 3.79097 8.29587C3.83196 8.29587 3.87251 8.30458 3.91012 8.32146C3.94772 8.33834 3.98158 8.36304 4.0096 8.39401C4.03761 8.42499 4.05918 8.46159 4.07298 8.50154C4.08677 8.5415 4.0925 8.58397 4.08979 8.6263V11.2951C4.44528 11.3438 4.80296 11.3735 5.16141 11.384V9.77064C5.15871 9.7283 5.16443 9.68584 5.17823 9.64588C5.19202 9.60592 5.21359 9.56932 5.24161 9.53835C5.26962 9.50737 5.30348 9.48267 5.34109 9.46579C5.37869 9.44891 5.41925 9.4402 5.46024 9.4402C5.50123 9.4402 5.54178 9.44891 5.57939 9.46579C5.617 9.48267 5.65085 9.50737 5.67887 9.53835C5.70688 9.56932 5.72845 9.60592 5.74225 9.64588C5.75604 9.68584 5.76177 9.7283 5.75907 9.77064V11.3881H6.83068V8.6263C6.82798 8.58397 6.8337 8.5415 6.8475 8.50154C6.86129 8.46159 6.88286 8.42499 6.91088 8.39401C6.93889 8.36304 6.97275 8.33834 7.01036 8.32146C7.04796 8.30458 7.08852 8.29587 7.12951 8.29587C7.1705 8.29587 7.21105 8.30458 7.24866 8.32146C7.28627 8.33834 7.32012 8.36304 7.34814 8.39401C7.37615 8.42499 7.39772 8.46159 7.41152 8.50154C7.42531 8.5415 7.43104 8.58397 7.42834 8.6263V11.3813H8.50125V9.60485C8.49855 9.56251 8.50428 9.52005 8.51807 9.48009C8.53187 9.44014 8.55344 9.40353 8.58145 9.37256C8.60946 9.34158 8.64332 9.31689 8.68093 9.3C8.71854 9.28312 8.75909 9.27441 8.80008 9.27441C8.84107 9.27441 8.88163 9.28312 8.91923 9.3C8.95684 9.31689 8.9907 9.34158 9.01871 9.37256C9.04673 9.40353 9.0683 9.44014 9.08209 9.48009C9.09589 9.52005 9.10161 9.56251 9.09891 9.60485V11.3813H10.1705V8.6263C10.1678 8.58397 10.1735 8.5415 10.1873 8.50154C10.2011 8.46159 10.2227 8.42499 10.2507 8.39401C10.2787 8.36304 10.3126 8.33834 10.3502 8.32146C10.3878 8.30458 10.4284 8.29587 10.4694 8.29587C10.5103 8.29587 10.5509 8.30458 10.5885 8.32146C10.6261 8.33834 10.66 8.36304 10.688 8.39401C10.716 8.42499 10.7376 8.46159 10.7514 8.50154C10.7652 8.5415 10.7709 8.58397 10.7682 8.6263V11.3813H11.8489V9.68572C11.8539 9.60721 11.8876 9.53361 11.9431 9.47984C11.9986 9.42606 12.0717 9.39615 12.1477 9.39615C12.2237 9.39615 12.2969 9.42606 12.3524 9.47984C12.4079 9.53361 12.4416 9.60721 12.4466 9.68572V11.3813H13.5195C13.5195 11.3813 13.5195 11.3692 13.5195 11.3638V8.6263C13.5168 8.58397 13.5225 8.5415 13.5363 8.50154C13.5501 8.46159 13.5717 8.42499 13.5997 8.39401C13.6277 8.36304 13.6616 8.33834 13.6992 8.32146C13.7368 8.30458 13.7773 8.29587 13.8183 8.29587C13.8593 8.29587 13.8999 8.30458 13.9375 8.32146C13.9751 8.33834 14.0089 8.36304 14.0369 8.39401C14.065 8.42499 14.0865 8.46159 14.1003 8.50154C14.1141 8.5415 14.1198 8.58397 14.1171 8.6263V11.3813H15.4062V6.49938H15.4023ZM1.92443 11.2452C1.91187 11.2393 1.8997 11.2325 1.88797 11.225C1.71887 11.1287 1.55657 11.0202 1.40229 10.9001C-0.00916459 9.7949 0.0129708 8.54274 0.0390125 7.05335C0.0390125 6.88891 0.0390125 6.72043 0.0390125 6.45086V3.63922C0.0118772 3.5063 -0.00122053 3.37072 -5.00386e-05 3.23486C-5.00386e-05 2.30754 0.682242 1.48265 1.78511 0.897675C2.83198 0.343704 4.26948 0 5.85021 0C7.43094 0 8.94266 0.347748 10.039 0.909806C11.1354 1.47186 11.8489 2.25767 11.8984 3.14321C11.8984 3.14321 11.8984 3.13243 11.8984 3.12569C11.9492 3.62305 11.8984 5.11243 11.8984 6.12737C13.1223 6.06267 14.388 5.96832 15.6627 5.8578H15.6992C15.7781 5.85815 15.8538 5.89079 15.9096 5.9486C15.9655 6.0064 15.997 6.08471 15.9973 6.16646V11.6927C15.9973 11.7747 15.966 11.8533 15.9101 11.9114C15.8542 11.9695 15.7784 12.0023 15.6992 12.0027H5.36714C4.60903 12.0023 3.85369 11.9081 3.11714 11.7223C2.70277 11.6144 2.30236 11.4556 1.92443 11.2492V11.2452ZM5.93224 1.70774C7.52469 1.70774 8.95177 2.41267 8.95177 3.32517C8.95177 4.23767 7.51948 4.90621 5.93224 4.90621C4.345 4.90621 3.04813 4.23228 3.04813 3.32517C3.04813 2.41806 4.33979 1.70774 5.93224 1.70774ZM9.72 1.45165C8.7161 0.943502 7.33198 0.620016 5.85021 0.620016C4.36844 0.620016 3.06375 0.931371 2.11193 1.43547C1.2187 1.90992 0.665315 2.54611 0.665315 3.23486C0.665315 3.92362 1.2187 4.56116 2.11193 5.03426C3.06375 5.53836 4.38406 5.84297 5.85021 5.84297C7.31636 5.84297 8.7148 5.52488 9.72 5.01134C10.6471 4.54364 11.2356 3.90879 11.2356 3.23486C11.2356 2.56093 10.6471 1.92609 9.72 1.45165Z" fill="#BDBDBD"/>
</g>
<defs>
<clipPath id="clip0_50_6462">
<rect width="16" height="12" fill="white"/>
</clipPath>
</defs>
</svg>
