<svg width="12" height="12" viewBox="0 0 12 12" fill="none" xmlns="http://www.w3.org/2000/svg">
<path fill-rule="evenodd" clip-rule="evenodd" d="M3.81876 1.69774C2.53026 1.69774 1.69776 2.58124 1.69776 3.94424V8.05124C1.69776 8.43374 1.76876 8.77524 1.89026 9.07074C1.89551 9.06448 2.01009 8.92484 2.15951 8.74275C2.45124 8.38724 2.87578 7.86989 2.87876 7.86724C3.22476 7.47224 3.87426 6.88324 4.72676 7.23974C4.91357 7.3172 5.07961 7.42331 5.23247 7.52098C5.24735 7.5305 5.26211 7.53993 5.27676 7.54924C5.56326 7.74074 5.73176 7.83074 5.90676 7.81574C5.97926 7.80574 6.04726 7.78424 6.11176 7.74424C6.35507 7.59424 6.98588 6.70044 7.17478 6.43278C7.20248 6.39353 7.22068 6.36774 7.22676 6.35974C7.77176 5.64974 8.61176 5.45974 9.31176 5.87974C9.40576 5.93574 10.0793 6.40624 10.3023 6.59524V3.94424C10.3023 2.58124 9.46976 1.69774 8.17676 1.69774H3.81876ZM8.17676 1.00024C9.86526 1.00024 10.9998 2.18124 10.9998 3.94424V8.05124C10.9998 8.09558 10.9951 8.13717 10.9904 8.17872C10.9872 8.20793 10.9839 8.23712 10.9823 8.26724C10.9812 8.28546 10.9807 8.30367 10.9801 8.32188C10.9795 8.34617 10.9788 8.37046 10.9768 8.39474C10.9758 8.40424 10.9739 8.41337 10.972 8.42249C10.9701 8.43162 10.9683 8.44074 10.9673 8.45024C10.9508 8.60724 10.9253 8.75724 10.8898 8.90274C10.8814 8.9391 10.8717 8.97415 10.8619 9.00953L10.8598 9.01724C10.8198 9.15824 10.7728 9.29274 10.7163 9.42124C10.7064 9.44285 10.6959 9.46391 10.6855 9.48497C10.6785 9.49901 10.6716 9.51305 10.6648 9.52724C10.6038 9.64974 10.5378 9.76724 10.4613 9.87624C10.4471 9.89642 10.432 9.91533 10.417 9.93427C10.407 9.94679 10.397 9.95932 10.3873 9.97224C10.3078 10.0752 10.2248 10.1737 10.1308 10.2632C10.112 10.2811 10.0917 10.2974 10.0714 10.3138C10.0587 10.324 10.0461 10.3342 10.0338 10.3447C9.93726 10.4277 9.83876 10.5072 9.73026 10.5752C9.70658 10.5901 9.68142 10.6026 9.65636 10.615C9.64014 10.6231 9.62397 10.6311 9.60826 10.6397C9.49776 10.7007 9.38626 10.7602 9.26476 10.8062C9.23553 10.8174 9.20442 10.8254 9.17323 10.8334C9.15106 10.8392 9.12886 10.8449 9.10726 10.8517C9.09644 10.8551 9.08563 10.8585 9.07483 10.8618C8.9663 10.8956 8.85812 10.9292 8.74126 10.9492C8.67355 10.9611 8.6017 10.9657 8.52979 10.9702C8.49868 10.9722 8.46756 10.9742 8.43676 10.9767C8.40364 10.9792 8.37117 10.9832 8.33867 10.9872C8.28579 10.9937 8.23281 11.0002 8.17676 11.0002H3.81876C3.63076 11.0002 3.45126 10.9812 3.27776 10.9527L3.25926 10.9497C2.58276 10.8332 2.02126 10.5067 1.62776 10.0142C1.62502 10.0142 1.62395 10.0124 1.62252 10.0099C1.6216 10.0084 1.62052 10.0065 1.61876 10.0047C1.22326 9.50674 0.999756 8.83724 0.999756 8.05124V3.94424C0.999756 2.18124 2.13526 1.00024 3.81876 1.00024H8.17676ZM5.50006 4.25752C5.50006 4.935 4.9332 5.50004 4.25248 5.50004C3.65413 5.50004 3.14395 5.06287 3.02961 4.49686C3.01071 4.41193 3.00006 4.3246 3.00006 4.23436C3.00006 3.55206 3.55432 3.00004 4.2394 3.00004C4.58823 3.00004 4.90413 3.14673 5.13039 3.38076C5.35761 3.60659 5.50006 3.91782 5.50006 4.25752Z" fill="#4F4F4F"/>
</svg>
